<?xml version="1.0" ?><svg id="Layer_1" style="enable-background:new 0 0 140 140;" version="1.1" viewBox="0 0 140 140" xml:space="preserve" xmlns="http://www.w3.org/2000/svg" xmlns:xlink="http://www.w3.org/1999/xlink"><style type="text/css">
	.st0{fill:#ff7300;}
	.st1{fill:#DB674C;}
	.st2{fill:#F3F3F3;}
	.st3{fill:#7DCEDC;}
	.st4{fill:#474F59;}
	.st5{fill:#55C5CA;}
	.st6{fill:#25313B;}
	.st7{fill:#DAD9D8;}
	.st8{fill:#FFFFFF;}
	.st9{fill:#FDDA7F;}
	.st10{fill:#202A31;}
	.st11{fill:#CDCCCC;}
	.st12{fill:#F6BB53;}
	.st13{fill:#404750;}
	.st14{fill:none;}
	.st15{fill:#CCCBCA;}
	.st16{fill:#90D5DE;}
	.st17{fill:#3D454D;}
	.st18{fill:#C2C1C1;}
	.st19{fill:#CA5C46;}
	.st20{fill:#3DA6A3;}
	.st21{fill:#4EC1C1;}
	.st22{fill:#41B5B5;}
	.st23{fill:#6FC3CC;}
	.st24{fill:#1C262E;}
	.st25{fill:#CC5E48;}
	.st26{fill:#C7C6C6;}
	.st27{fill:#C6C4C3;}
	.st28{fill:#231F20;}
	.st29{fill:#1D2830;}
	.st30{fill:#3F4852;}
	.st31{fill:#363F48;}
	.st32{fill:#B64C37;}
	.st33{fill:#1B262E;}
	.st34{fill:#3E4650;}
	.st35{fill:#192128;}
</style><g><g><g><circle class="st0" cx="69" cy="70" r="64"/></g></g><g><g><g><path class="st9" d="M47.9,105.8v-3.1l-2.9-0.4c-0.1-0.6-0.3-1.1-0.4-1.7l2.3-1.8l-1.5-2.7l-2.7,1.1c-0.4-0.4-0.8-0.9-1.2-1.2      l1.1-2.7l-2.7-1.5l-1.8,2.3c-0.5-0.2-1.1-0.3-1.7-0.4L36,90.8h-3.1l-0.4,2.9c-0.6,0.1-1.1,0.3-1.7,0.4l-1.8-2.3l-2.7,1.5      l1.1,2.7c-0.4,0.4-0.9,0.8-1.2,1.2l-2.7-1.1L22,98.9l2.3,1.8c-0.2,0.5-0.3,1.1-0.4,1.7l-2.9,0.4v3.1l2.9,0.4      c0.1,0.6,0.3,1.1,0.4,1.7l-2.3,1.8l1.5,2.7l2.7-1.1c0.4,0.4,0.8,0.9,1.2,1.2l-1.1,2.7l2.7,1.5l1.8-2.3c0.5,0.2,1.1,0.3,1.7,0.4      l0.4,2.9H36l0.4-2.9c0.6-0.1,1.1-0.3,1.7-0.4l1.8,2.3l2.7-1.5l-1.1-2.7c0.4-0.4,0.9-0.8,1.2-1.2l2.7,1.1l1.5-2.7l-2.3-1.8      c0.2-0.5,0.3-1.1,0.4-1.7L47.9,105.8z M34.4,109.8c-3.1,0-5.5-2.5-5.5-5.5c0-3.1,2.5-5.5,5.5-5.5s5.5,2.5,5.5,5.5      C40,107.3,37.5,109.8,34.4,109.8z"/></g></g></g><g><g><g><path class="st4" d="M126,17.5c0-1.8-1.5-3.3-3.3-3.3H15.6c-1.8,0-3.3,1.5-3.3,3.3v67H126V17.5z"/></g></g><g><g><path class="st2" d="M12.3,84.5v8c0,1.8,1.5,3.3,3.3,3.3h107.1c1.8,0,3.3-1.5,3.3-3.3v-8H12.3z"/></g></g><g><g><polygon class="st7" points="86.3,112.7 51.9,112.7 54.5,95.8 83.7,95.8     "/></g></g><g><g><rect class="st2" height="3.4" width="43.8" x="47.2" y="110.1"/></g></g></g><g><g><g><rect class="st9" height="6.8" width="8.5" x="107.6" y="86"/></g></g><g><g><path class="st3" d="M119.4,114.9l-1.9-22.1h-11.3l-1.9,22.1c-0.4,4.4,3.1,8.2,7.5,8.2S119.8,119.3,119.4,114.9z"/></g></g><g><g><path class="st6" d="M111.9,88.8c-12.8,0-23.2-10.4-23.2-23.2c0-12.8,10.4-23.2,23.2-23.2c12.8,0,23.2,10.4,23.2,23.2      C135,78.4,124.6,88.8,111.9,88.8z"/></g></g><g><g><circle class="st8" cx="111.9" cy="65.6" r="19.2"/></g></g><g><g><g><g><g><path class="st4" d="M125.9,75l-2.6-4.2l-5.5-2.4c-0.2-0.1-0.3-0.3-0.2-0.6c0.1-0.2,0.3-0.3,0.6-0.2l5.6,2.4         c0.1,0,0.1,0.1,0.2,0.2l2.7,4.3c0.1,0.2,0.1,0.5-0.1,0.6C126.3,75.2,126,75.1,125.9,75z"/></g></g></g><g><g><g><path class="st4" d="M125.9,68.3l-2.2-2.6h-6.4c-0.2,0-0.4-0.2-0.4-0.4c0-0.2,0.2-0.4,0.4-0.4h6.6c0.1,0,0.2,0.1,0.3,0.2         l2.3,2.8c0.1,0.2,0.1,0.4-0.1,0.6C126.3,68.5,126.1,68.4,125.9,68.3z"/></g></g></g><g><g><g><path class="st4" d="M116,62.6c-0.2,0-0.3-0.1-0.4-0.3c-0.1-0.2,0.1-0.5,0.3-0.5l6.6-2l0.7-4.3c0-0.2,0.3-0.4,0.5-0.4         c0.2,0,0.4,0.3,0.4,0.5l-0.7,4.5c0,0.2-0.1,0.3-0.3,0.3l-6.9,2.1C116.1,62.6,116,62.6,116,62.6z"/></g></g></g></g><g><g><g><g><path class="st4" d="M97.9,75l2.6-4.2l5.5-2.4c0.2-0.1,0.3-0.3,0.2-0.6c-0.1-0.2-0.3-0.3-0.6-0.2L100,70         c-0.1,0-0.1,0.1-0.2,0.2l-2.7,4.3c-0.1,0.2-0.1,0.5,0.1,0.6C97.5,75.2,97.8,75.1,97.9,75z"/></g></g></g><g><g><g><path class="st4" d="M97.8,68.3l2.2-2.6h6.4c0.2,0,0.4-0.2,0.4-0.4c0-0.2-0.2-0.4-0.4-0.4h-6.6c-0.1,0-0.2,0.1-0.3,0.2         l-2.3,2.8c-0.1,0.2-0.1,0.4,0.1,0.6C97.4,68.5,97.7,68.4,97.8,68.3z"/></g></g></g><g><g><g><path class="st4" d="M107.8,62.6c0.2,0,0.3-0.1,0.4-0.3c0.1-0.2-0.1-0.5-0.3-0.5l-6.6-2l-0.7-4.3c0-0.2-0.3-0.4-0.5-0.4         c-0.2,0-0.4,0.3-0.4,0.5l0.7,4.5c0,0.2,0.1,0.3,0.3,0.3l6.9,2.1C107.7,62.6,107.7,62.6,107.8,62.6z"/></g></g></g></g><g><g><g><g><path class="st4" d="M113.6,54.3c-0.1,0-0.2-0.2-0.2-0.3c0-0.1,0.6-2,2.5-2.2c0.1,0,0.3,0.1,0.3,0.2c0,0.1-0.1,0.3-0.2,0.3         c-1.6,0.2-2.1,1.8-2.1,1.8C113.9,54.3,113.7,54.4,113.6,54.3z"/></g></g></g><g><g><g><path class="st4" d="M109.8,54.2c0-0.1-0.5-1.6-2.1-1.8c-0.1,0-0.3-0.2-0.2-0.3c0-0.1,0.2-0.2,0.3-0.2         c1.9,0.3,2.5,2.2,2.5,2.2c0,0.1,0,0.3-0.2,0.3C110,54.4,109.9,54.3,109.8,54.2z"/></g></g></g></g><g><g><path class="st3" d="M103.1,64.2c0,6.1,3.9,11.1,8.7,11.1c4.8,0,8.7-5,8.7-11.1c0-2-0.4-3.9-1.2-5.6h-15.1       C103.6,60.3,103.1,62.2,103.1,64.2z"/></g></g><g><g><path class="st4" d="M104.8,57.6c-0.2,0.3-0.4,0.7-0.5,1h15.1c-0.2-0.3-0.3-0.7-0.5-1H104.8z"/></g></g><g><g><path class="st5" d="M111.9,53.1c-2.9,0-5.5,1.8-7,4.6h14.1C117.3,54.9,114.8,53.1,111.9,53.1z"/></g></g><g><g><g><path class="st2" d="M111.4,59.6H105c-0.6,1.4-0.8,3-0.8,4.6c0,5.4,3.2,9.8,7.3,10.1V59.6z"/></g></g><g><g><path class="st2" d="M118.8,59.6h-6.4v14.7c4-0.3,7.3-4.7,7.3-10.1C119.6,62.6,119.3,61,118.8,59.6z"/></g></g></g><g><g><g><circle class="st8" cx="109.5" cy="55.5" r="0.6"/></g></g><g><g><circle class="st8" cx="114.3" cy="55.5" r="0.6"/></g></g></g></g><g><g><path class="st9" d="M117.9,91.8h-12c-0.6,0-1,0.5-1,1s0.5,1,1,1h12c0.6,0,1-0.5,1-1S118.4,91.8,117.9,91.8z"/></g></g></g><g><g><rect class="st3" height="37.2" width="46.9" x="18.7" y="20.2"/></g></g><g><g><rect class="st12" height="5" width="46.9" x="18.7" y="20.2"/></g></g><g><g><g><circle class="st8" cx="22.3" cy="22.6" r="1.7"/></g></g><g><g><circle class="st8" cx="27.4" cy="22.6" r="1.7"/></g></g><g><g><circle class="st8" cx="32.5" cy="22.6" r="1.7"/></g></g></g><g><g><rect class="st8" height="14.6" width="14.6" x="21.6" y="28.1"/></g></g><g><g><g><path class="st0" d="M26.2,38.3l-1.1,2.4h-1.9l4.6-10.5h1.9l4.6,10.5h-1.9l-1.1-2.4H26.2z M30.8,36.7l-1.9-4.3L27,36.7H30.8z"/></g></g></g><g><g><rect class="st8" height="3" width="24" x="38.7" y="28.1"/></g></g><g><g><rect class="st8" height="3" width="24" x="38.7" y="34"/></g></g><g><g><rect class="st8" height="3" width="24" x="38.7" y="39.8"/></g></g><g><g><rect class="st8" height="3" width="41.1" x="21.6" y="45.6"/></g></g><g><g><rect class="st8" height="3" width="41.1" x="21.6" y="51.4"/></g></g><g><g><rect class="st5" height="37.2" width="46.9" x="37.5" y="39"/></g></g><g><g><rect class="st12" height="5" width="46.9" x="37.5" y="39"/></g></g><g><g><g><circle class="st8" cx="41.1" cy="41.5" r="1.7"/></g></g><g><g><circle class="st8" cx="46.3" cy="41.5" r="1.7"/></g></g><g><g><circle class="st8" cx="51.4" cy="41.5" r="1.7"/></g></g></g><g><g><rect class="st8" height="14.6" width="14.6" x="40.4" y="47"/></g></g><g><g><g><path class="st0" d="M48.1,59.5h-4.6V49h4.1c0.7,0,1.3,0.1,1.8,0.3c0.5,0.2,0.9,0.4,1.2,0.7c0.5,0.5,0.7,1.2,0.7,1.8      c0,0.8-0.3,1.4-0.8,1.8c-0.2,0.1-0.3,0.2-0.4,0.3c-0.1,0-0.2,0.1-0.4,0.2c0.7,0.1,1.2,0.4,1.6,0.9c0.4,0.4,0.6,1,0.6,1.7      c0,0.7-0.3,1.4-0.8,1.9C50.6,59.2,49.6,59.5,48.1,59.5z M45.3,53.4h2.3c1.3,0,1.9-0.4,1.9-1.3c0-0.5-0.2-0.9-0.5-1.1      c-0.3-0.2-0.8-0.3-1.4-0.3h-2.3V53.4z M45.3,57.9h2.8c0.7,0,1.2-0.1,1.5-0.3c0.3-0.2,0.5-0.6,0.5-1.2c0-0.9-0.7-1.4-2.2-1.4      h-2.6V57.9z"/></g></g></g><g><g><rect class="st8" height="3" width="24" x="57.6" y="47"/></g></g><g><g><rect class="st8" height="3" width="24" x="57.6" y="52.8"/></g></g><g><g><rect class="st8" height="3" width="24" x="57.6" y="58.6"/></g></g><g><g><rect class="st8" height="3" width="41.1" x="40.4" y="64.4"/></g></g><g><g><rect class="st8" height="3" width="41.1" x="40.4" y="70.2"/></g></g></g></svg>