<?xml version="1.0" encoding="UTF-8" standalone="no"?>
<!DOCTYPE svg PUBLIC "-//W3C//DTD SVG 1.1//EN" "http://www.w3.org/Graphics/SVG/1.1/DTD/svg11.dtd">
<svg width="100%" height="100%" viewBox="0 0 512 512" version="1.1" xmlns="http://www.w3.org/2000/svg" xmlns:xlink="http://www.w3.org/1999/xlink" xml:space="preserve" xmlns:serif="http://www.serif.com/" style="fill-rule:evenodd;clip-rule:evenodd;stroke-linejoin:round;stroke-miterlimit:2;">
    <g>
        <rect x="178" y="73" width="175" height="381" style="fill:rgb(29,33,46);"/>
        <g>
            <path d="M256,0C115.39,0 0,115.39 0,256C0,396.61 115.39,512 256,512C396.61,512 512,396.61 512,256C512,115.39 396.61,0 256,0ZM286,376C286,392.538 272.538,406 256,406C239.462,406 226,392.538 226,376L226,226C226,209.462 239.462,196 256,196C272.538,196 286,209.462 286,226L286,376ZM256,166C239.462,166 226,152.538 226,136C226,119.462 239.462,106 256,106C272.538,106 286,119.462 286,136C286,152.538 272.538,166 256,166Z" style="fill:white;fill-rule:nonzero;"/>
        </g>
    </g>
</svg>
