<svg height='300px' width='300px'  fill="#000000" xmlns="http://www.w3.org/2000/svg" xmlns:xlink="http://www.w3.org/1999/xlink" viewBox="0 0 556 556" version="1.1" xml:space="preserve" style="" x="0px" y="0px" fill-rule="evenodd" clip-rule="evenodd" stroke-linejoin="round" stroke-miterlimit="1.41421"><g><path d="M277.778,513.889c130.191,0 236.111,-105.92 236.111,-236.111c0,-130.192 -105.92,-236.111 -236.111,-236.111c-130.192,0 -236.111,105.919 -236.111,236.111c0,130.191 105.919,236.111 236.111,236.111Zm0,-441.647c113.334,0 205.535,92.207 205.535,205.536c0,113.329 -92.201,205.535 -205.535,205.535c-113.334,0 -205.536,-92.206 -205.536,-205.535c0,-113.329 92.202,-205.536 205.536,-205.536Zm-114.657,234.868l155.162,0c0,0 -37.613,37.618 -60.912,60.907c-9.947,9.952 -9.947,26.086 0,36.038c1.641,1.641 3.302,3.297 4.943,4.938c9.947,9.953 26.081,9.953 36.034,0c30.494,-30.489 91.008,-91.009 112.106,-112.111c4.78,-4.775 7.465,-11.257 7.465,-18.014l0,-2.181c0,-6.752 -2.685,-13.234 -7.465,-18.014c-21.098,-21.098 -81.612,-81.617 -112.106,-112.107c-9.953,-9.952 -26.087,-9.952 -36.034,0c-1.641,1.636 -3.302,3.303 -4.943,4.938c-9.947,9.953 -9.947,26.082 0,36.034c23.299,23.294 60.912,60.912 60.912,60.912l-155.162,0c-14.075,0 -25.48,11.41 -25.48,25.48l0,7.7c0,14.075 11.405,25.48 25.48,25.48Z" style="" fill="#000000"></path></g></svg>

