<?xml version="1.0" standalone="no"?>
<!DOCTYPE svg PUBLIC "-//W3C//DTD SVG 20010904//EN" "http://www.w3.org/TR/2001/REC-SVG-20010904/DTD/svg10.dtd">
<svg
	version="1.0"
	xmlns="http://www.w3.org/2000/svg"
	width="700.000000pt"
	height="700.000000pt"
	viewBox="0 0 700.000000 700.000000"
	preserveAspectRatio="xMidYMid meet"
>
	<g
		transform="translate(0.000000,700.000000) scale(0.100000,-0.100000)"
		fill="#000000"
		stroke="none"
	>
		<path
			d="M3205 6990 c-604 -54 -1177 -258 -1674 -597 -376 -256 -691 -575
-946 -958 -305 -458 -484 -939 -561 -1510 -25 -184 -25 -666 0 -850 61 -457
192 -864 397 -1240 749 -1375 2301 -2086 3829 -1754 1193 259 2179 1143 2568
2304 128 382 177 689 177 1115 0 269 -9 383 -46 600 -134 787 -554 1526 -1164
2051 -531 455 -1153 732 -1855 824 -147 19 -575 28 -725 15z m-123 -1400 c128
-39 237 -150 275 -279 23 -78 20 -192 -6 -261 -12 -30 -21 -58 -21 -61 0 -4
108 -111 240 -239 l240 -232 52 26 c133 64 293 49 429 -40 l27 -17 228 194
c209 178 229 198 227 225 -1 16 -5 61 -9 100 -17 177 78 338 244 417 61 29 75
32 168 32 96 0 103 -2 176 -38 260 -128 318 -460 117 -672 -33 -35 -77 -67
-118 -88 -62 -30 -72 -32 -176 -32 -105 0 -114 2 -178 33 -38 19 -72 30 -79
26 -7 -4 -116 -95 -243 -203 -126 -107 -231 -195 -232 -196 -1 0 2 -29 7 -64
39 -278 -204 -520 -476 -474 -224 39 -376 250 -343 478 5 37 14 76 20 87 10
18 6 26 -27 57 -22 21 -132 129 -246 241 l-208 204 -73 -23 c-61 -19 -87 -22
-157 -18 -47 3 -98 8 -115 11 -29 6 -37 -2 -315 -361 -156 -202 -284 -374
-283 -383 1 -8 14 -49 28 -90 55 -151 17 -320 -98 -434 -29 -30 -72 -63 -95
-75 -270 -138 -584 37 -609 339 -25 299 270 533 548 435 l39 -14 289 371 289
371 -30 63 c-89 190 -31 414 137 529 105 72 236 93 357 55z m248 -2520 l0
-1290 -370 0 -370 0 0 1290 0 1290 370 0 370 0 0 -1290z m2170 -85 l0 -1205
-370 0 -370 0 0 1205 0 1205 370 0 370 0 0 -1205z m-1090 -360 l0 -845 -370 0
-370 0 0 845 0 845 370 0 370 0 0 -845z m-2170 -225 l0 -620 -370 0 -370 0 0
620 0 620 370 0 370 0 0 -620z m3748 -747 l-3 -118 -2485 0 -2485 0 -3 118 -3
117 2491 0 2491 0 -3 -117z"
		/>
	</g>
</svg>
