<?xml version="1.0" encoding="utf-8"?>
<!DOCTYPE svg PUBLIC "-//W3C//DTD SVG 1.1//EN" "http://www.w3.org/Graphics/SVG/1.1/DTD/svg11.dtd">
<svg version="1.1" xmlns="http://www.w3.org/2000/svg" xmlns:xlink="http://www.w3.org/1999/xlink" x="0px" y="0px" viewBox="0 0 1000 1000" enable-background="new 0 0 1000 1000" xml:space="preserve">
    <g>
        <g fill="#ff7300" transform="translate(0.000000,511.000000) scale(0.100000,-0.100000)">
        <path d="M1421,4739.5c-31.4-111.7-56.8-209.7-56.8-219.5s39.2-31.4,88.2-47c995.7-321.5,1830.6-862.4,2381.4-1542.5c139.2-172.5,343-464.5,343-492c0-5.9-62.7-78.4-139.2-158.8c-233.2-245-339.1-537-299.9-823.2l17.6-133.3l1232.8-5.9c938.8-3.9,1236.8,2,1248.5,19.6c31.4,49,39.2,254.8,17.6,388.1c-33.3,198-135.2,388.1-295.9,558.6c-74.5,78.4-135.2,149-135.2,156.8c0,31.4,219.5,345,356.7,509.6c388.1,464.5,893.8,864.4,1464.1,1154.4c268.5,137.2,403.8,194,727.2,307.7c221.5,76.4,262.6,98,258.7,129.4c-7.8,41.2-105.8,384.2-113.7,395.9c-9.8,9.8-305.8-90.2-576.3-196c-1040.8-405.7-1969.8-1148.6-2455.9-1963.9l-78.4-135.2l-90.2,17.6c-115.6,19.6-515.5,19.6-631.1,0l-88.2-17.6l-76.4,125.4C3957.3,3689,2963.6,4439.6,1764,4851.2c-141.1,49-264.6,88.2-272.4,88.2C1485.7,4939.4,1452.4,4849.3,1421,4739.5z"/><path d="M1425,2475.7c-70.6-94.1-127.4-180.3-127.4-192.1c0-9.8,190.1-154.8,421.4-319.5l419.4-299.9v-597.8V470.6H2452h313.6v-245v-245h-441h-441l-431.2-539c-237.2-296-439-539-448.8-539c-7.8,0-168.6,80.4-352.8,176.4c-184.2,98-339.1,176.4-343,176.4c-11.8,0-207.8-366.5-207.8-388.1c0-35.3,1021.2-556.7,1044.7-535.1c13.7,9.8,231.3,278.3,484.1,597.8l460.6,578.2h339.1l339.1,2l-5.9-305.7l-5.9-303.8l-509.6-282.2l-509.6-280.3l-5.9-809.5l-5.9-811.4L1031-3812C648.8-4102,337.2-4349,337.2-4358.8c-2-7.8,56.8-94.1,129.4-188.1l131.3-172.5l78.4,56.8c45.1,31.4,397.9,301.9,786,601.7l705.6,544.9l5.9,786l3.9,787.9l278.3,152.9c152.9,84.3,286.2,156.8,294,158.8c9.8,3.9,15.7-215.6,13.7-490c-3.9-546.8,7.8-646.8,121.5-972.1c188.2-533.1,597.8-989.8,1125-1254.4c198-98,493.9-184.3,646.8-188.2l137.2-2l5.9,2338.3l3.9,2336.3h196h196v-2344.2v-2346.1l145.1,11.7c176.4,11.8,509.6,121.5,719.3,233.3c590,313.6,1015.3,889.8,1146.6,1552.3c23.5,121.5,31.4,270.5,29.4,644.8c-2,268.5,3.9,484.1,13.7,480.2c7.9-2,141.1-74.5,294-158.8l278.3-154.8l2-786V-3518l754.6-578.2c413.6-317.5,768.3-588,787.9-601.7c29.4-19.6,51,0,166.6,152.9c98,127.4,129.4,182.3,115.6,199.9c-11.8,13.7-325.4,258.7-697.8,542.9l-676.2,519.4l-5.9,809.5l-5.9,809.5l-509.6,282.2l-509.6,280.3l-5.9,305.8l-5.9,305.7h335.2h333.2l474.3-595.8c262.6-329.3,482.1-597.8,488-597.8c23.5-3.9,1036.8,531.2,1036.8,546.9c0,31.3-201.9,393.9-215.6,388.1c-7.9-3.9-170.5-84.3-358.7-182.3c-188.2-96.1-346.9-172.5-352.8-166.6c-3.9,5.9-199.9,250.9-433.2,544.9L8112.5-19.4h-439h-439.1v245v243l309.7,5.9l307.7,5.9l5.9,591.9l3.9,591.9l411.6,297.9c227.4,162.7,417.5,303.8,423.3,313.6c13.7,21.6-237.1,362.6-264.6,356.7c-9.8-3.9-250.9-170.5-531.2-372.4l-509.6-366.5v-476.3V941H5000H2608.8v476.3v476.3l-503.7,360.6c-276.4,199.9-513.5,370.4-527.2,378.3C1558.2,2642.3,1513.2,2597.2,1425,2475.7z"/>
        </g>
    </g>
</svg>