<?xml version="1.0" encoding="UTF-8"?>
<svg xmlns="http://www.w3.org/2000/svg" xmlns:xlink="http://www.w3.org/1999/xlink" width="64pt" height="64pt" viewBox="0 0 64 64" version="1.1">
    <g id="surface1">
        <path style=" stroke:none;fill-rule:nonzero;fill:rgb(100%,45.098039%,0%);fill-opacity:1;" d="M 9.09375 2.371094 C 8.894531 3.085938 8.730469 3.714844 8.730469 3.777344 C 8.730469 3.839844 8.980469 3.976562 9.296875 4.078125 C 15.667969 6.132812 21.011719 9.597656 24.535156 13.949219 C 25.425781 15.054688 26.730469 16.921875 26.730469 17.097656 C 26.730469 17.136719 26.332031 17.597656 25.839844 18.113281 C 24.347656 19.683594 23.671875 21.550781 23.921875 23.382812 L 24.035156 24.234375 L 31.925781 24.273438 C 37.933594 24.296875 39.839844 24.261719 39.914062 24.148438 C 40.113281 23.835938 40.164062 22.515625 40.027344 21.664062 C 39.8125 20.398438 39.160156 19.179688 38.132812 18.089844 C 37.65625 17.585938 37.269531 17.136719 37.269531 17.085938 C 37.269531 16.882812 38.671875 14.878906 39.550781 13.824219 C 42.035156 10.851562 45.269531 8.292969 48.921875 6.4375 C 50.640625 5.558594 51.503906 5.195312 53.574219 4.464844 C 54.992188 3.976562 55.253906 3.839844 55.230469 3.636719 C 55.179688 3.375 54.554688 1.179688 54.503906 1.105469 C 54.441406 1.042969 52.546875 1.683594 50.816406 2.359375 C 44.152344 4.957031 38.207031 9.710938 35.097656 14.929688 L 34.59375 15.792969 L 34.019531 15.679688 C 33.277344 15.554688 30.71875 15.554688 29.980469 15.679688 L 29.414062 15.792969 L 28.925781 14.992188 C 25.328125 9.09375 18.96875 4.289062 11.289062 1.65625 C 10.386719 1.34375 9.597656 1.09375 9.546875 1.09375 C 9.507812 1.09375 9.296875 1.667969 9.09375 2.371094 Z M 9.09375 2.371094 "/>
        <path style=" stroke:none;fill-rule:nonzero;fill:rgb(100%,45.098039%,0%);fill-opacity:1;" d="M 9.121094 16.859375 C 8.667969 17.460938 8.304688 18.011719 8.304688 18.089844 C 8.304688 18.152344 9.519531 19.078125 11 20.132812 L 13.6875 22.054688 L 13.6875 29.691406 L 17.699219 29.691406 L 17.699219 32.828125 L 12.054688 32.828125 L 9.296875 36.277344 C 7.777344 38.171875 6.484375 39.726562 6.421875 39.726562 C 6.375 39.726562 5.34375 39.210938 4.164062 38.597656 C 2.984375 37.972656 1.996094 37.46875 1.96875 37.46875 C 1.894531 37.46875 0.640625 39.816406 0.640625 39.953125 C 0.640625 40.179688 7.175781 43.515625 7.324219 43.378906 C 7.414062 43.316406 8.804688 41.597656 10.425781 39.550781 L 13.371094 35.851562 L 15.542969 35.851562 L 17.710938 35.839844 L 17.675781 37.796875 L 17.636719 39.738281 L 14.375 41.546875 L 11.113281 43.339844 L 11.078125 48.519531 L 11.039062 53.714844 L 6.597656 57.101562 C 4.152344 58.957031 2.15625 60.539062 2.15625 60.601562 C 2.144531 60.648438 2.523438 61.203125 2.984375 61.804688 L 3.828125 62.90625 L 4.328125 62.542969 C 4.617188 62.34375 6.875 60.613281 9.359375 58.695312 L 13.875 55.207031 L 13.914062 50.175781 L 13.9375 45.132812 L 15.71875 44.15625 C 16.695312 43.617188 17.550781 43.152344 17.601562 43.136719 C 17.664062 43.113281 17.699219 44.519531 17.6875 46.273438 C 17.664062 49.773438 17.738281 50.414062 18.464844 52.496094 C 19.667969 55.90625 22.292969 58.832031 25.664062 60.523438 C 26.933594 61.152344 28.828125 61.703125 29.804688 61.730469 L 30.683594 61.742188 L 30.71875 46.777344 L 30.746094 31.824219 L 33.253906 31.824219 L 33.253906 61.84375 L 34.183594 61.765625 C 35.3125 61.691406 37.445312 60.988281 38.785156 60.273438 C 42.5625 58.265625 45.285156 54.578125 46.125 50.339844 C 46.273438 49.5625 46.324219 48.609375 46.3125 46.210938 C 46.300781 44.492188 46.339844 43.113281 46.402344 43.140625 C 46.453125 43.152344 47.304688 43.617188 48.28125 44.15625 L 50.0625 45.144531 L 50.074219 50.175781 L 50.074219 55.21875 L 54.90625 58.917969 C 57.550781 60.953125 59.824219 62.683594 59.949219 62.769531 C 60.136719 62.894531 60.273438 62.769531 61.015625 61.792969 C 61.640625 60.976562 61.84375 60.625 61.753906 60.511719 C 61.679688 60.425781 59.671875 58.855469 57.289062 57.039062 L 52.960938 53.714844 L 52.921875 48.53125 L 52.886719 43.351562 L 49.625 41.546875 L 46.363281 39.753906 L 46.285156 35.839844 L 50.566406 35.839844 L 53.601562 39.652344 C 55.28125 41.757812 56.683594 43.476562 56.722656 43.476562 C 56.875 43.503906 63.359375 40.078125 63.359375 39.976562 C 63.359375 39.777344 62.066406 37.457031 61.980469 37.492188 C 61.929688 37.519531 60.886719 38.035156 59.683594 38.660156 C 58.480469 39.277344 57.464844 39.765625 57.425781 39.726562 C 57.398438 39.6875 56.144531 38.121094 54.652344 36.238281 L 51.921875 32.828125 L 46.300781 32.828125 L 46.300781 29.703125 L 48.28125 29.667969 L 50.25 29.628906 L 50.289062 25.839844 L 50.3125 22.054688 L 52.949219 20.148438 C 54.402344 19.105469 55.621094 18.203125 55.65625 18.140625 C 55.746094 18 54.140625 15.820312 53.964844 15.855469 C 53.902344 15.882812 52.359375 16.949219 50.566406 18.238281 L 47.304688 20.585938 L 47.304688 26.679688 L 16.695312 26.679688 L 16.695312 20.585938 L 13.472656 18.277344 C 11.703125 16.996094 10.1875 15.90625 10.097656 15.855469 C 9.972656 15.792969 9.683594 16.082031 9.121094 16.859375 Z M 9.121094 16.859375 "/>
    </g>
</svg>
